<?xml version="1.0" encoding="UTF-8" standalone="no"?>
<!DOCTYPE svg PUBLIC "-//W3C//DTD SVG 1.1//EN" "http://www.w3.org/Graphics/SVG/1.1/DTD/svg11.dtd">
<svg width="100%" height="100%" viewBox="0 0 512 512" version="1.1" xmlns="http://www.w3.org/2000/svg" xmlns:xlink="http://www.w3.org/1999/xlink" xml:space="preserve" xmlns:serif="http://www.serif.com/" style="fill-rule:evenodd;clip-rule:evenodd;stroke-linejoin:round;stroke-miterlimit:2;">
    <path d="M77.683,237.5C74.202,236.146 70.78,234.511 67.446,232.586C32.076,212.165 19.939,166.87 40.36,131.5C60.781,96.13 106.076,83.993 141.446,104.414C165.258,118.162 178.54,143.184 178.446,168.862C171.888,168.477 165.217,168.759 158.434,169.715C158.84,150.646 149.116,131.937 131.446,121.735C105.635,106.833 72.582,115.69 57.68,141.5C42.779,167.311 51.635,200.364 77.446,215.265C79.892,216.678 82.403,217.877 84.958,218.868C83.492,221.707 82.172,224.635 80.998,227.652C79.74,230.888 78.635,234.171 77.683,237.5ZM255.395,154.998C214.831,154.672 182,121.64 182,81C182,40.158 215.158,7 256,7C296.842,7 330,40.158 330,81C330,98.177 324.135,113.995 314.3,126.559C307.197,128.577 300.292,130.71 293.582,132.955C283.984,136.167 275.604,139.929 268.425,144.2C263.124,147.354 258.799,150.971 255.395,154.998ZM256,27C226.197,27 202,51.197 202,81C202,110.803 226.197,135 256,135C285.803,135 310,110.803 310,81C310,51.197 285.803,27 256,27ZM354.445,116.948C359.1,112.155 364.485,107.918 370.554,104.414C405.924,83.993 451.219,96.13 471.64,131.5C492.061,166.87 479.924,212.165 444.554,232.586C432.381,239.614 419.031,242.786 405.924,242.481C404.933,236.002 403.533,229.234 401.715,222.177C412.736,223.387 424.225,221.229 434.554,215.265C460.365,200.364 469.221,167.311 454.32,141.5C441.472,119.247 415.132,109.597 391.574,116.909C387.352,115.678 382.743,115.003 377.736,114.92C370.563,114.802 362.798,115.468 354.445,116.948ZM407.658,269.499C420.205,269.501 432.917,272.695 444.554,279.414C479.924,299.835 492.061,345.13 471.64,380.5C451.219,415.87 405.924,428.007 370.554,407.586C348.317,394.747 335.263,372.075 333.71,348.219C337.053,347.685 340.457,346.955 343.923,346.026L344.09,345.981C347.375,345.101 350.53,344.126 353.555,343.058C353.425,361.858 363.123,380.201 380.554,390.265C406.365,405.167 439.418,396.311 454.32,370.5C469.222,344.689 460.365,311.636 434.554,296.735C425.235,291.354 414.971,289.071 404.958,289.565C406.488,283.344 407.394,276.656 407.658,269.499ZM155.939,396.665C151.667,400.799 146.825,404.48 141.446,407.586C106.076,428.007 60.781,415.87 40.36,380.5C19.939,345.13 32.076,299.835 67.446,279.414C69.403,278.284 71.39,277.254 73.403,276.322C73.706,283.492 74.531,290.611 75.876,297.676C51.281,312.991 43.085,345.22 57.68,370.5C71.282,394.059 100.005,403.493 124.541,393.628C133.322,398.823 143.167,400.114 154.118,397.179C154.737,397.014 155.343,396.842 155.939,396.665ZM256,505C215.158,505 182,471.842 182,431C182,390.158 215.158,357 256,357C296.842,357 330,390.158 330,431C330,471.842 296.842,505 256,505ZM256,485C285.803,485 310,460.803 310,431C310,401.197 285.803,377 256,377C226.197,377 202,401.197 202,431C202,460.803 226.197,485 256,485ZM151.53,387.52C143.263,389.736 135.831,388.822 129.234,384.781C122.638,380.74 116.743,374.541 111.55,366.185C106.358,357.829 101.85,348.354 98.027,337.761C94.204,327.167 90.864,316.543 88.009,305.887C84.662,293.393 83.087,280.72 83.286,267.868C83.485,255.015 85.829,242.818 90.318,231.277C94.807,219.737 101.708,209.666 111.022,201.066C120.335,192.466 132.433,186.173 147.315,182.185C162.38,178.149 176.858,177.617 190.75,180.59C204.641,183.562 216.812,189.852 227.262,199.457C237.713,209.062 245.079,221.857 249.362,237.841C253.202,252.171 254.296,265.072 252.643,276.542C250.99,288.012 247.318,298.005 241.624,306.521C235.931,315.037 228.956,322.075 220.698,327.635C212.441,333.195 203.59,337.092 194.147,339.327C184.703,341.563 175.496,342.11 166.526,340.969C168.626,345.132 170.338,349.498 171.66,354.066C172.983,358.635 173.392,363.103 172.889,367.472C172.386,371.84 170.492,375.794 167.206,379.332C163.921,382.871 158.695,385.6 151.53,387.52ZM181.011,296.917C187.625,295.145 192.714,291.172 196.278,284.999C199.842,278.826 200.763,272.524 199.04,266.094C197.267,259.479 193.295,254.39 187.121,250.826C180.948,247.262 174.555,246.366 167.94,248.138C161.326,249.911 156.237,253.883 152.673,260.057C149.109,266.23 148.213,272.623 149.985,279.238C151.708,285.668 155.657,290.665 161.83,294.229C168.003,297.793 174.397,298.689 181.011,296.917ZM341.334,336.367C328.474,339.813 316.577,340.244 305.645,337.659C294.713,335.075 285.464,330.317 277.896,323.385C270.328,316.453 265.264,308.211 262.704,298.657C260.095,288.92 260.814,280.949 264.862,274.744C268.91,268.54 274.058,264.601 280.304,262.927C286.735,261.204 291.844,261.164 295.632,262.808C299.42,264.451 302.525,266.671 304.948,269.468C307.371,272.265 309.88,274.645 312.473,276.608C315.067,278.571 318.385,279.011 322.427,277.928C329.776,275.959 332.866,270.405 331.697,261.267C330.528,252.128 327.612,239.224 322.949,222.554L318.444,205.743C308.792,207.936 299.745,209.08 291.304,209.176C282.862,209.272 275.742,207.684 269.942,204.414C264.143,201.143 260.136,195.374 257.921,187.107C255.853,179.391 256.283,172.728 259.211,167.119C262.139,161.51 266.914,156.735 273.538,152.794C280.162,148.854 287.901,145.401 296.756,142.438C305.61,139.475 314.815,136.713 324.368,134.153C334.106,131.544 343.503,129.321 352.562,127.485C361.62,125.648 369.956,124.793 377.571,124.919C385.186,125.044 391.664,126.804 397.003,130.198C402.343,133.591 406.047,139.146 408.115,146.863C410.773,156.784 409.41,164.927 404.027,171.292C398.644,177.657 391.029,183.045 381.184,187.456C382.831,192.134 384.489,197.4 386.156,203.255C387.823,209.109 389.592,215.527 391.463,222.509C399.733,253.374 399.876,278.344 391.892,297.418C383.908,316.492 367.056,329.475 341.334,336.367Z"/>
</svg>
